<svg width="69" height="79" viewBox="0 0 69 79" fill="none" xmlns="http://www.w3.org/2000/svg">
<g clip-path="url(#clip0_3_83)">
<path d="M34.6609 14.0713L31.626 10.5052C24.5022 2.1342 11.4398 5.02291 6.72443 15.5471C4.51067 20.4971 4.0112 27.6439 8.05353 36.7649C11.9477 45.5471 20.0493 56.0665 34.6609 67.5245C49.2726 56.0665 57.3699 45.5471 61.2683 36.7649C65.3107 27.639 64.8154 20.4971 62.5975 15.5471C57.8821 5.02291 44.8197 2.12937 37.6959 10.5003L34.6609 14.0713ZM34.6609 73.3552C-30.2406 24.3294 14.6779 -13.9352 33.916 6.30517C34.1699 6.5713 34.4197 6.84711 34.6609 7.13259C34.8998 6.84737 35.1483 6.57296 35.4059 6.31001C54.6398 -13.9448 99.5625 24.3245 34.6609 73.3552Z" fill="black"/>
</g>
<defs>
<clipPath id="clip0_3_83">
<rect width="67.7249" height="77.4194" fill="white" transform="translate(0.79895 0.774292)"/>
</clipPath>
</defs>
</svg>
