<svg width="65" height="74" viewBox="0 0 65 74" fill="none" xmlns="http://www.w3.org/2000/svg">
<g clip-path="url(#clip0_3_77)">
<path d="M32.5767 69.4033C25.1113 69.4033 17.9517 66.0132 12.6729 59.9787C7.39411 53.9443 4.42851 45.7598 4.42851 37.2259C4.42851 28.6919 7.39411 20.5074 12.6729 14.473C17.9517 8.43855 25.1113 5.04843 32.5767 5.04843C40.042 5.04843 47.2016 8.43855 52.4804 14.473C57.7592 20.5074 60.7248 28.6919 60.7248 37.2259C60.7248 45.7598 57.7592 53.9443 52.4804 59.9787C47.2016 66.0132 40.042 69.4033 32.5767 69.4033ZM32.5767 74C41.1085 74 49.2909 70.1256 55.3238 63.2291C61.3567 56.3326 64.746 46.979 64.746 37.2259C64.746 27.4727 61.3567 18.1191 55.3238 11.2226C49.2909 4.32607 41.1085 0.45166 32.5767 0.45166C24.0448 0.45166 15.8624 4.32607 9.82952 11.2226C3.79661 18.1191 0.407349 27.4727 0.407349 37.2259C0.407349 46.979 3.79661 56.3326 9.82952 63.2291C15.8624 70.1256 24.0448 74 32.5767 74Z" fill="black"/>
<path d="M25.624 23.6884C25.9529 23.4948 26.3221 23.4086 26.691 23.4395C27.06 23.4703 27.4143 23.6168 27.715 23.863L41.7891 35.355C42.0498 35.5676 42.2622 35.8483 42.4088 36.1737C42.5554 36.4991 42.6318 36.8598 42.6318 37.2259C42.6318 37.5919 42.5554 37.9526 42.4088 38.278C42.2622 38.6034 42.0498 38.8841 41.7891 39.0967L27.715 50.5887C27.4144 50.8347 27.0602 50.9811 26.6915 51.0119C26.3228 51.0427 25.9537 50.9567 25.625 50.7634C25.2962 50.57 25.0205 50.2768 24.8281 49.9159C24.6357 49.555 24.534 49.1404 24.5343 48.7178V25.7339C24.5339 25.3114 24.6354 24.8969 24.8277 24.5361C25.0199 24.1752 25.2955 23.8819 25.624 23.6884Z" fill="black"/>
</g>
<defs>
<clipPath id="clip0_3_77">
<rect width="64.3386" height="73.5484" fill="white" transform="translate(0.407349 0.45166)"/>
</clipPath>
</defs>
</svg>
