<svg width="65" height="74" viewBox="0 0 65 74" fill="none" xmlns="http://www.w3.org/2000/svg">
<g clip-path="url(#clip0_3_89)">
<path d="M32.4497 5.04826C39.9151 5.04826 47.0747 8.43838 52.3535 14.4728C57.6323 20.5073 60.5979 28.6917 60.5979 37.2257C60.5979 45.7597 57.6323 53.9441 52.3535 59.9786C47.0747 66.013 39.9151 69.4031 32.4497 69.4031C24.9844 69.4031 17.8248 66.013 12.546 59.9786C7.26716 53.9441 4.30156 45.7597 4.30156 37.2257C4.30156 28.6917 7.26716 20.5073 12.546 14.4728C17.8248 8.43838 24.9844 5.04826 32.4497 5.04826ZM32.4497 0.451492C23.9179 0.451492 15.7355 4.3259 9.70257 11.2224C3.66965 18.1189 0.280396 27.4726 0.280396 37.2257C0.280396 46.9788 3.66965 56.3325 9.70257 63.229C15.7355 70.1255 23.9179 73.9999 32.4497 73.9999C40.9815 73.9999 49.1639 70.1255 55.1968 63.229C61.2298 56.3325 64.619 46.9788 64.619 37.2257C64.619 27.4726 61.2298 18.1189 55.1968 11.2224C49.1639 4.3259 40.9815 0.451492 32.4497 0.451492Z" fill="black"/>
<path d="M39.4023 50.7632C39.0735 50.9568 38.7043 51.0429 38.3353 51.0121C37.9664 50.9813 37.6121 50.8347 37.3113 50.5885L26.418 41.6938L26.418 48.7176C26.418 49.3272 26.2062 49.9118 25.8291 50.3428C25.4521 50.7739 24.9406 51.016 24.4074 51.016C23.8742 51.016 23.3628 50.7739 22.9857 50.3428C22.6087 49.9118 22.3968 49.3272 22.3968 48.7176L22.3968 25.7337C22.3968 25.1242 22.6087 24.5396 22.9857 24.1085C23.3628 23.6775 23.8742 23.4354 24.4074 23.4354C24.9406 23.4354 25.4521 23.6775 25.8291 24.1085C26.2062 24.5396 26.418 25.1242 26.418 25.7337V32.7576L37.3153 23.8629C37.616 23.6182 37.9697 23.4728 38.3378 23.4427C38.706 23.4125 39.0742 23.4988 39.4023 23.692C39.7304 23.8852 40.0056 24.1779 40.1978 24.5381C40.39 24.8982 40.4918 25.3119 40.4921 25.7337L40.4921 48.7176C40.4925 49.1401 40.3909 49.5546 40.1987 49.9155C40.0064 50.2764 39.7309 50.5697 39.4023 50.7632Z" fill="black"/>
</g>
<defs>
<clipPath id="clip0_3_89">
<rect width="64.3386" height="73.5484" fill="white" transform="matrix(-1 0 0 -1 64.619 73.9999)"/>
</clipPath>
</defs>
</svg>
