<svg width="65" height="74" viewBox="0 0 65 74" fill="none" xmlns="http://www.w3.org/2000/svg">
<g clip-path="url(#clip0_3_92)">
<path d="M32.7037 69.4033C25.2384 69.4033 18.0788 66.0132 12.8 59.9787C7.52119 53.9443 4.55559 45.7598 4.55559 37.2259C4.55559 28.6919 7.52119 20.5074 12.8 14.473C18.0788 8.43855 25.2384 5.04843 32.7037 5.04843C40.1691 5.04843 47.3287 8.43855 52.6075 14.473C57.8863 20.5074 60.8519 28.6919 60.8519 37.2259C60.8519 45.7598 57.8863 53.9443 52.6075 59.9787C47.3287 66.0132 40.1691 69.4033 32.7037 69.4033ZM32.7037 74C41.2356 74 49.418 70.1256 55.4509 63.2291C61.4838 56.3326 64.873 46.979 64.873 37.2259C64.873 27.4727 61.4838 18.1191 55.4509 11.2226C49.418 4.32607 41.2356 0.45166 32.7037 0.45166C24.1719 0.45166 15.9895 4.32607 9.9566 11.2226C3.92368 18.1191 0.534424 27.4727 0.534424 37.2259C0.534424 46.979 3.92368 56.3326 9.9566 63.2291C15.9895 70.1256 24.1719 74 32.7037 74Z" fill="black"/>
<path d="M25.7511 23.6884C26.08 23.4948 26.4492 23.4086 26.8181 23.4395C27.187 23.4703 27.5414 23.6168 27.8421 23.863L38.7354 32.7578V25.7339C38.7354 25.1243 38.9473 24.5397 39.3243 24.1087C39.7014 23.6777 40.2128 23.4355 40.746 23.4355C41.2793 23.4355 41.7907 23.6777 42.1677 24.1087C42.5448 24.5397 42.7566 25.1243 42.7566 25.7339V48.7178C42.7566 49.3274 42.5448 49.912 42.1677 50.343C41.7907 50.774 41.2793 51.0162 40.746 51.0162C40.2128 51.0162 39.7014 50.774 39.3243 50.343C38.9473 49.912 38.7354 49.3274 38.7354 48.7178V41.6939L27.8381 50.5887C27.5375 50.8334 27.1837 50.9787 26.8156 51.0089C26.4475 51.039 26.0792 50.9528 25.7511 50.7595C25.4231 50.5663 25.1478 50.2736 24.9556 49.9135C24.7634 49.5533 24.6616 49.1397 24.6614 48.7178V25.7339C24.661 25.3114 24.7625 24.8969 24.9547 24.5361C25.147 24.1752 25.4225 23.8819 25.7511 23.6884Z" fill="black"/>
</g>
<defs>
<clipPath id="clip0_3_92">
<rect width="64.3386" height="73.5484" fill="white" transform="translate(0.534424 0.45166)"/>
</clipPath>
</defs>
</svg>
