<svg width="40" height="40" viewBox="0 0 40 40" fill="none" xmlns="http://www.w3.org/2000/svg">
<path d="M2.5 20C2.5 24.6413 4.34374 29.0925 7.62563 32.3744C10.9075 35.6563 15.3587 37.5 20 37.5C24.6413 37.5 29.0925 35.6563 32.3744 32.3744C35.6563 29.0925 37.5 24.6413 37.5 20C37.5 15.3587 35.6563 10.9075 32.3744 7.62563C29.0925 4.34374 24.6413 2.5 20 2.5C15.3587 2.5 10.9075 4.34374 7.62563 7.62563C4.34374 10.9075 2.5 15.3587 2.5 20ZM40 20C40 25.3043 37.8929 30.3914 34.1421 34.1421C30.3914 37.8929 25.3043 40 20 40C14.6957 40 9.60859 37.8929 5.85786 34.1421C2.10714 30.3914 0 25.3043 0 20C0 14.6957 2.10714 9.60859 5.85786 5.85786C9.60859 2.10714 14.6957 0 20 0C25.3043 0 30.3914 2.10714 34.1421 5.85786C37.8929 9.60859 40 14.6957 40 20ZM20.365 12.48C17.335 12.48 15.5475 14.78 15.5475 18.735V21.385C15.5475 25.3125 17.305 27.54 20.365 27.54C22.8125 27.54 24.4675 26.075 24.6875 23.995H27.925V24.2275C27.675 27.8475 24.54 30.395 20.35 30.395C15.1225 30.395 12.1775 27.055 12.1775 21.3875V18.705C12.1775 13.0525 15.18 9.61 20.3525 9.61C24.555 9.61 27.69 12.245 27.925 16.04V16.26H24.6875C24.4675 14.0625 22.7675 12.48 20.365 12.48Z" fill="black"/>
</svg>
